<?xml version="1.0" standalone="no"?>
<svg xmlns="http://www.w3.org/2000/svg" xmlns:xlink="http://www.w3.org/1999/xlink" width="1404pt" height="423pt" viewBox="0.00 0.00 1404.16 422.88">
<g id="graph0" class="graph" transform="translate(4,418.8800048828125) scale(1)" data-name="">
<polygon fill="white" stroke="none" points="-4,4 -4,-418.88 1400.16,-418.88 1400.16,4 -4,4" style=""/>
<!-- &#45;1 -->
<g id="node1" class="node" pointer-events="visible" data-name="-1">

<ellipse fill="none" stroke="#2ecc71" stroke-width="2" cx="460" cy="-394.19" rx="18" ry="18" style=""/>
<text text-anchor="middle" x="460" y="-389.99" font-family="Times,serif" font-size="14.00" fill="#2ecc71" style="">1</text>
</g>
<!-- 8 -->
<g id="node10" class="node" pointer-events="visible" data-name="8">

<ellipse fill="white" stroke="#3498db" cx="829" cy="-300.54" rx="20.3" ry="20.3" style=""/>
<text text-anchor="middle" x="829" y="-296.34" font-family="Times,serif" font-size="14.00" fill="#3498db" style="">z0</text>
</g>
<!-- &#45;1&#45;&gt;8 -->
<g id="edge1" class="edge" data-name="-1-&gt;8">

<path fill="none" stroke="black" d="M477.25,-387.56C490.5,-383.36 509.29,-377.65 526,-373.49 565.59,-363.65 576.15,-364.22 616,-355.49 647.46,-348.6 654.93,-345.07 686.5,-338.69 734.42,-329.02 748.9,-336.93 795,-320.69 797.39,-319.85 799.8,-318.85 802.19,-317.75" style=""/>
<polygon fill="black" stroke="black" points="803.66,-320.93 810.91,-313.2 800.43,-314.72 803.66,-320.93" style=""/>
<text text-anchor="middle" x="698.25" y="-342.89" font-family="Times,serif" font-size="14.00" fill="steelblue" style="">2.04</text>
</g>
<!-- 9 -->
<g id="node11" class="node" pointer-events="visible" data-name="9">

<ellipse fill="white" stroke="#3498db" cx="690" cy="-207.44" rx="20.3" ry="20.3" style=""/>
<text text-anchor="middle" x="690" y="-203.24" font-family="Times,serif" font-size="14.00" fill="#3498db" style="">z1</text>
</g>
<!-- &#45;1&#45;&gt;9 -->
<g id="edge2" class="edge" data-name="-1-&gt;9">

<path fill="none" stroke="black" d="M477.36,-387.97C490.66,-383.98 509.48,-378.36 526,-373.49 553.53,-365.39 566.52,-374.51 588,-355.49 627.78,-320.28 601.17,-286.55 635,-245.59 642.46,-236.56 652.67,-228.84 662.27,-222.82" style=""/>
<polygon fill="black" stroke="black" points="663.75,-226.01 670.61,-217.94 660.21,-219.97 663.75,-226.01" style=""/>
<text text-anchor="middle" x="629.25" y="-296.34" font-family="Times,serif" font-size="14.00" fill="steelblue" style="">4.43</text>
</g>
<!-- 10 -->
<g id="node12" class="node" pointer-events="visible" data-name="10">

<ellipse fill="white" stroke="#3498db" cx="365" cy="-114.34" rx="20.3" ry="20.3" style=""/>
<text text-anchor="middle" x="365" y="-110.14" font-family="Times,serif" font-size="14.00" fill="#3498db" style="">z2</text>
</g>
<!-- &#45;1&#45;&gt;10 -->
<g id="edge3" class="edge" data-name="-1-&gt;10">

<path fill="none" stroke="black" d="M454.34,-376.64C438.73,-330.97 394.87,-202.7 375,-144.6" style=""/>
<polygon fill="black" stroke="black" points="378.4,-143.72 371.86,-135.39 371.78,-145.98 378.4,-143.72" style=""/>
<text text-anchor="middle" x="430.75" y="-249.79" font-family="Times,serif" font-size="14.00" fill="steelblue" style="">18.90</text>
</g>
<!-- 11 -->
<g id="node13" class="node" pointer-events="visible" data-name="11">

<ellipse fill="white" stroke="#e74c3c" cx="690" cy="-20.69" rx="20.89" ry="20.89" style=""/>
<text text-anchor="middle" x="690" y="-16.49" font-family="Times,serif" font-size="14.00" fill="#e74c3c" style="">y0</text>
</g>
<!-- &#45;1&#45;&gt;11 -->
<g id="edge4" class="edge" data-name="-1-&gt;11">

<path fill="none" stroke="black" d="M442.97,-387.69C403.88,-374.01 308.5,-334.22 275,-262.39 253.34,-215.96 190.43,-331.96 326,-94.19 336.11,-76.45 337.94,-68.92 356,-59.39 407.93,-31.96 584.7,-24.36 657.88,-22.36" style=""/>
<polygon fill="black" stroke="black" points="657.67,-25.87 667.58,-22.12 657.5,-18.87 657.67,-25.87" style=""/>
<text text-anchor="middle" x="285.25" y="-203.24" font-family="Times,serif" font-size="14.00" fill="goldenrod" style="">7.74</text>
</g>
<!-- 0 -->
<g id="node2" class="node" pointer-events="visible" data-name="0">

<ellipse fill="white" stroke="#2ecc71" cx="782" cy="-394.19" rx="20.89" ry="20.89" style=""/>
<text text-anchor="middle" x="782" y="-389.99" font-family="Times,serif" font-size="14.00" fill="#2ecc71" style="">x0</text>
</g>
<!-- 0&#45;&gt;8 -->
<g id="edge5" class="edge" data-name="0-&gt;8">

<path fill="none" stroke="black" d="M802.8,-389.36C821.14,-384.76 846.79,-375.07 859,-355.49 865.67,-344.8 859.89,-332.55 851.68,-322.43" style=""/>
<polygon fill="black" stroke="black" points="854.47,-320.29 845.12,-315.29 849.31,-325.02 854.47,-320.29" style=""/>
<text text-anchor="middle" x="875.58" y="-342.89" font-family="Times,serif" font-size="14.00" fill="steelblue" style="">-5.23</text>
</g>
<!-- 0&#45;&gt;9 -->
<g id="edge6" class="edge" data-name="0-&gt;9">

<path fill="none" stroke="black" d="M802.42,-389.26C831.66,-383.17 883.17,-370.57 894,-355.49 898.36,-349.43 896.04,-345.88 894,-338.69 885.68,-309.4 880.44,-300.98 858,-280.39 812.65,-238.79 787.34,-249.92 730,-227.59 726.04,-226.05 721.92,-224.28 717.9,-222.45" style=""/>
<polygon fill="black" stroke="black" points="719.57,-219.37 709.04,-218.25 716.57,-225.7 719.57,-219.37" style=""/>
<text text-anchor="middle" x="902.58" y="-296.34" font-family="Times,serif" font-size="14.00" fill="steelblue" style="">-3.57</text>
</g>
<!-- 0&#45;&gt;10 -->
<g id="edge7" class="edge" data-name="0-&gt;10">

<path fill="none" stroke="black" d="M802.63,-388.74C843.02,-379.94 928.94,-360.7 933,-355.49 996.25,-274.51 815.64,-188.69 813,-187.29 740.14,-148.66 486.78,-125.09 396.92,-117.78" style=""/>
<polygon fill="black" stroke="black" points="397.35,-114.31 387.1,-117 396.79,-121.29 397.35,-114.31" style=""/>
<text text-anchor="middle" x="932.58" y="-249.79" font-family="Times,serif" font-size="14.00" fill="steelblue" style="">-8.68</text>
</g>
<!-- 0&#45;&gt;11 -->
<g id="edge8" class="edge" data-name="0-&gt;11">

<path fill="none" stroke="black" d="M802.4,-388.15C820.38,-383.83 847.31,-377.67 871,-373.49 915.04,-365.72 1240.53,-354.33 1270,-320.69 1281.81,-307.22 1281.51,-294.11 1270,-280.39 1240.41,-245.13 1206.05,-288.31 1168,-262.39 1135.65,-240.36 1150.97,-213.61 1122,-187.29 1015.62,-90.66 962.52,-101.14 825,-59.39 789.55,-48.62 748.52,-37.33 721.08,-29.95" style=""/>
<polygon fill="black" stroke="black" points="722.24,-26.63 711.67,-27.42 720.42,-33.39 722.24,-26.63" style=""/>
<text text-anchor="middle" x="1158.58" y="-203.24" font-family="Times,serif" font-size="14.00" fill="goldenrod" style="">-1.94</text>
</g>
<!-- 1 -->
<g id="node3" class="node" pointer-events="visible" data-name="1">

<ellipse fill="white" stroke="#2ecc71" cx="1130" cy="-394.19" rx="20.89" ry="20.89" style=""/>
<text text-anchor="middle" x="1130" y="-389.99" font-family="Times,serif" font-size="14.00" fill="#2ecc71" style="">x1</text>
</g>
<!-- 1&#45;&gt;8 -->
<g id="edge9" class="edge" data-name="1-&gt;8">

<path fill="none" stroke="black" d="M1111.13,-384.67C1084.85,-373.06 1035.56,-352.17 992,-338.69 946.93,-324.75 893.38,-313.54 860.29,-307.21" style=""/>
<polygon fill="black" stroke="black" points="861.04,-303.79 850.57,-305.38 859.75,-310.67 861.04,-303.79" style=""/>
<text text-anchor="middle" x="1052.58" y="-342.89" font-family="Times,serif" font-size="14.00" fill="steelblue" style="">-5.32</text>
</g>
<!-- 1&#45;&gt;9 -->
<g id="edge10" class="edge" data-name="1-&gt;9">

<path fill="none" stroke="black" d="M1150.02,-387.18C1197.64,-371.91 1310.71,-329.35 1270,-280.39 1255.98,-263.53 1194.48,-266.79 1173,-262.39 1139.53,-255.54 1131.85,-250.18 1098,-245.59 935.73,-223.61 888.75,-267.74 730,-227.59 725.88,-226.55 721.67,-225.06 717.61,-223.38" style=""/>
<polygon fill="black" stroke="black" points="719.26,-220.29 708.72,-219.24 716.31,-226.63 719.26,-220.29" style=""/>
<text text-anchor="middle" x="1292.58" y="-296.34" font-family="Times,serif" font-size="14.00" fill="steelblue" style="">-3.59</text>
</g>
<!-- 1&#45;&gt;10 -->
<g id="edge11" class="edge" data-name="1-&gt;10">

<path fill="none" stroke="black" d="M1150.79,-390.29C1210.88,-381.03 1377.55,-348.69 1329,-280.39 1315.37,-261.21 1251.71,-251.73 1229,-245.59 1188.78,-234.72 1174.85,-245 1137,-227.59 1110.75,-215.52 1111.87,-200.15 1086,-187.29 1030.9,-159.89 1012.76,-162.21 952,-152.49 938.18,-150.28 517.58,-124.61 397.01,-117.28" style=""/>
<polygon fill="black" stroke="black" points="397.38,-113.8 387.19,-116.68 396.96,-120.78 397.38,-113.8" style=""/>
<text text-anchor="middle" x="1310.58" y="-249.79" font-family="Times,serif" font-size="14.00" fill="steelblue" style="">-8.70</text>
</g>
<!-- 1&#45;&gt;11 -->
<g id="edge12" class="edge" data-name="1-&gt;11">

<path fill="none" stroke="black" d="M1151.21,-393.12C1187.25,-392.12 1261.73,-386.14 1315,-355.49 1381.27,-317.37 1387.33,-254.56 1351,-187.29 1315.14,-120.89 1279.29,-121.66 1209,-94.19 1034.96,-26.15 806.09,-20.62 722.42,-21.1" style=""/>
<polygon fill="black" stroke="black" points="722.63,-17.59 712.66,-21.19 722.69,-24.59 722.63,-17.59" style=""/>
<text text-anchor="middle" x="1381.58" y="-203.24" font-family="Times,serif" font-size="14.00" fill="goldenrod" style="">-1.93</text>
</g>
<!-- 2 -->
<g id="node4" class="node" pointer-events="visible" data-name="2">

<ellipse fill="white" stroke="#2ecc71" cx="1011" cy="-394.19" rx="20.89" ry="20.89" style=""/>
<text text-anchor="middle" x="1011" y="-389.99" font-family="Times,serif" font-size="14.00" fill="#2ecc71" style="">x2</text>
</g>
<!-- 2&#45;&gt;8 -->
<g id="edge13" class="edge" data-name="2-&gt;8">

<path fill="none" stroke="black" d="M995.08,-380.15C979.85,-368.16 955.9,-350.51 933,-338.69 909.28,-326.45 880.6,-316.54 859.37,-310.04" style=""/>
<polygon fill="black" stroke="black" points="860.46,-306.71 849.88,-307.22 858.47,-313.42 860.46,-306.71" style=""/>
<text text-anchor="middle" x="973.58" y="-342.89" font-family="Times,serif" font-size="14.00" fill="steelblue" style="">-5.22</text>
</g>
<!-- 2&#45;&gt;9 -->
<g id="edge14" class="edge" data-name="2-&gt;9">

<path fill="none" stroke="black" d="M1031.39,-388.07C1049.36,-383.71 1076.29,-377.52 1100,-373.49 1133.32,-367.84 1228.56,-380.76 1251,-355.49 1255.96,-349.91 1254.87,-345.08 1251,-338.69 1221.89,-290.72 1189.42,-305.04 1139,-280.39 1105.62,-264.08 1099.07,-254.48 1063,-245.59 919.09,-210.12 873.6,-264.3 730,-227.59 725.88,-226.54 721.67,-225.05 717.61,-223.36" style=""/>
<polygon fill="black" stroke="black" points="719.27,-220.27 708.73,-219.22 716.31,-226.61 719.27,-220.27" style=""/>
<text text-anchor="middle" x="1251.58" y="-296.34" font-family="Times,serif" font-size="14.00" fill="steelblue" style="">-3.56</text>
</g>
<!-- 2&#45;&gt;10 -->
<g id="edge15" class="edge" data-name="2-&gt;10">

<path fill="none" stroke="black" d="M1031.28,-388.64C1097.97,-373.64 1306.55,-326.35 1311,-320.69 1322.08,-306.62 1322.61,-294.03 1311,-280.39 1294.78,-261.33 1224.12,-268.46 1199.84,-262.39 1196.94,-261.67 1100.63,-229.01 1098,-227.59 1072.26,-213.72 1072.48,-199.68 1046,-187.29 1012.21,-171.47 999.99,-179.14 964,-169.29 940.98,-162.99 936.42,-157.07 913,-152.49 887.58,-147.52 510.37,-124.21 396.99,-117.28" style=""/>
<polygon fill="black" stroke="black" points="397.39,-113.8 387.19,-116.69 396.96,-120.79 397.39,-113.8" style=""/>
<text text-anchor="middle" x="1213.58" y="-249.79" font-family="Times,serif" font-size="14.00" fill="steelblue" style="">-8.68</text>
</g>
<!-- 2&#45;&gt;11 -->
<g id="edge16" class="edge" data-name="2-&gt;11">

<path fill="none" stroke="black" d="M1031.42,-388.22C1049.4,-383.95 1076.34,-377.82 1100,-373.49 1202.74,-354.7 1267.86,-405.37 1329,-320.69 1354.24,-285.74 1307.87,-199.91 1296,-187.29 1177.38,-61.15 1097.93,-92.64 928,-59.39 854.7,-45.04 767.87,-32.37 722.05,-26.02" style=""/>
<polygon fill="black" stroke="black" points="722.66,-22.57 712.28,-24.67 721.71,-29.5 722.66,-22.57" style=""/>
<text text-anchor="middle" x="1332.58" y="-203.24" font-family="Times,serif" font-size="14.00" fill="goldenrod" style="">-1.94</text>
</g>
<!-- 3 -->
<g id="node5" class="node" pointer-events="visible" data-name="3">

<ellipse fill="white" stroke="#2ecc71" cx="357" cy="-394.19" rx="20.89" ry="20.89" style=""/>
<text text-anchor="middle" x="357" y="-389.99" font-family="Times,serif" font-size="14.00" fill="#2ecc71" style="">x3</text>
</g>
<!-- 3&#45;&gt;8 -->
<g id="edge17" class="edge" data-name="3-&gt;8">

<path fill="none" stroke="black" d="M377.29,-387.78C392.58,-383.74 414.07,-378.14 433,-373.49 499.39,-357.18 515.31,-349.34 582.84,-338.69 676.32,-323.95 704.56,-348.55 795,-320.69 797.42,-319.95 799.86,-319.01 802.26,-317.96" style=""/>
<polygon fill="black" stroke="black" points="803.7,-321.15 811,-313.48 800.51,-314.92 803.7,-321.15" style=""/>
<text text-anchor="middle" x="597.58" y="-342.89" font-family="Times,serif" font-size="14.00" fill="steelblue" style="">-5.14</text>
</g>
<!-- 3&#45;&gt;9 -->
<g id="edge18" class="edge" data-name="3-&gt;9">

<path fill="none" stroke="black" d="M375.46,-383.78C390.06,-376.28 410.94,-365.41 429,-355.49 514.85,-308.35 534.29,-292.98 620,-245.59 633.73,-238 649.13,-229.8 661.97,-223.04" style=""/>
<polygon fill="black" stroke="black" points="663.5,-226.19 670.73,-218.44 660.25,-219.99 663.5,-226.19" style=""/>
<text text-anchor="middle" x="572.58" y="-296.34" font-family="Times,serif" font-size="14.00" fill="steelblue" style="">-3.55</text>
</g>
<!-- 3&#45;&gt;10 -->
<g id="edge19" class="edge" data-name="3-&gt;10">

<path fill="none" stroke="black" d="M346.26,-375.74C330.71,-348.39 304.75,-293.6 313.84,-245.59 320.84,-208.62 338.09,-168.71 350.63,-142.95" style=""/>
<polygon fill="black" stroke="black" points="353.68,-144.69 355,-134.18 347.41,-141.57 353.68,-144.69" style=""/>
<text text-anchor="middle" x="328.58" y="-249.79" font-family="Times,serif" font-size="14.00" fill="steelblue" style="">-8.66</text>
</g>
<!-- 3&#45;&gt;11 -->
<g id="edge20" class="edge" data-name="3-&gt;11">

<path fill="none" stroke="black" d="M339.66,-382.18C296.05,-353.01 187.47,-270.24 218.84,-187.29 245.79,-116.02 264.94,-93.64 333,-59.39 389.41,-31 580.23,-23.93 657.31,-22.22" style=""/>
<polygon fill="black" stroke="black" points="657.22,-25.73 667.15,-22.02 657.08,-18.73 657.22,-25.73" style=""/>
<text text-anchor="middle" x="233.58" y="-203.24" font-family="Times,serif" font-size="14.00" fill="goldenrod" style="">-1.94</text>
</g>
<!-- 4 -->
<g id="node6" class="node" pointer-events="visible" data-name="4">

<ellipse fill="white" stroke="#2ecc71" cx="556" cy="-394.19" rx="20.89" ry="20.89" style=""/>
<text text-anchor="middle" x="556" y="-389.99" font-family="Times,serif" font-size="14.00" fill="#2ecc71" style="">x4</text>
</g>
<!-- 4&#45;&gt;8 -->
<g id="edge21" class="edge" data-name="4-&gt;8">

<path fill="none" stroke="black" d="M573.21,-381.84C578.7,-378.69 584.93,-375.56 591,-373.49 643.71,-355.54 661.44,-370.74 715,-355.49 752.29,-344.88 760.28,-337.96 795,-320.69 797.13,-319.63 799.32,-318.5 801.51,-317.34" style=""/>
<polygon fill="black" stroke="black" points="803.13,-320.44 810.21,-312.56 799.76,-314.31 803.13,-320.44" style=""/>
<text text-anchor="middle" x="770.25" y="-342.89" font-family="Times,serif" font-size="14.00" fill="steelblue" style="">4.99</text>
</g>
<!-- 4&#45;&gt;9 -->
<g id="edge22" class="edge" data-name="4-&gt;9">

<path fill="none" stroke="black" d="M573.27,-382C578.76,-378.85 584.97,-375.69 591,-373.49 631.79,-358.65 658.94,-388.61 687,-355.49 714.49,-323.05 707.48,-270.58 699.23,-237.87" style=""/>
<polygon fill="black" stroke="black" points="702.61,-236.97 696.59,-228.25 695.86,-238.82 702.61,-236.97" style=""/>
<text text-anchor="middle" x="718.25" y="-296.34" font-family="Times,serif" font-size="14.00" fill="steelblue" style="">3.66</text>
</g>
<!-- 4&#45;&gt;10 -->
<g id="edge23" class="edge" data-name="4-&gt;10">

<path fill="none" stroke="black" d="M557.5,-373.25C558.41,-349.74 557.16,-310.1 542,-280.39 507.21,-212.22 432.32,-157.5 392.01,-131.6" style=""/>
<polygon fill="black" stroke="black" points="393.93,-128.67 383.6,-126.31 390.2,-134.6 393.93,-128.67" style=""/>
<text text-anchor="middle" x="543.25" y="-249.79" font-family="Times,serif" font-size="14.00" fill="steelblue" style="">8.89</text>
</g>
<!-- 4&#45;&gt;11 -->
<g id="edge24" class="edge" data-name="4-&gt;11">

<path fill="none" stroke="black" d="M537.76,-383.13C526.03,-376.19 510.82,-366.3 499,-355.49 467.46,-326.67 471.55,-308.06 439,-280.39 426.57,-269.82 418.51,-273.96 407,-262.39 361.16,-216.29 352.3,-197.43 336,-134.49 331.51,-117.15 324.77,-108.14 336,-94.19 376.22,-44.21 578.08,-27.82 657.67,-23.25" style=""/>
<polygon fill="black" stroke="black" points="657.62,-26.76 667.41,-22.72 657.23,-19.77 657.62,-26.76" style=""/>
<text text-anchor="middle" x="388.25" y="-203.24" font-family="Times,serif" font-size="14.00" fill="goldenrod" style="">1.94</text>
</g>
<!-- 5 -->
<g id="node7" class="node" pointer-events="visible" data-name="5">

<ellipse fill="white" stroke="#2ecc71" cx="621" cy="-394.19" rx="20.89" ry="20.89" style=""/>
<text text-anchor="middle" x="621" y="-389.99" font-family="Times,serif" font-size="14.00" fill="#2ecc71" style="">x5</text>
</g>
<!-- 5&#45;&gt;8 -->
<g id="edge25" class="edge" data-name="5-&gt;8">

<path fill="none" stroke="black" d="M641.95,-389.96C687.27,-382.82 791.32,-365.54 804,-355.49 811.71,-349.39 817.14,-340.35 820.93,-331.42" style=""/>
<polygon fill="black" stroke="black" points="824.15,-332.79 824.25,-322.19 817.57,-330.41 824.15,-332.79" style=""/>
<text text-anchor="middle" x="831.58" y="-342.89" font-family="Times,serif" font-size="14.00" fill="steelblue" style="">-5.23</text>
</g>
<!-- 5&#45;&gt;9 -->
<g id="edge26" class="edge" data-name="5-&gt;9">

<path fill="none" stroke="black" d="M642.14,-391.22C680.6,-387.15 759.57,-376.4 776,-355.49 780.61,-349.62 778.15,-345.85 776,-338.69 763.42,-296.81 732.52,-255.97 711.4,-231.5" style=""/>
<polygon fill="black" stroke="black" points="714.1,-229.26 704.85,-224.09 708.85,-233.9 714.1,-229.26" style=""/>
<text text-anchor="middle" x="782.58" y="-296.34" font-family="Times,serif" font-size="14.00" fill="steelblue" style="">-3.57</text>
</g>
<!-- 5&#45;&gt;10 -->
<g id="edge27" class="edge" data-name="5-&gt;10">

<path fill="none" stroke="black" d="M627.79,-374.1C632.55,-359.65 638.49,-339.2 641,-320.69 643.4,-302.94 649.46,-296.18 641,-280.39 589.57,-184.43 456.35,-138.89 395.78,-122.64" style=""/>
<polygon fill="black" stroke="black" points="396.71,-119.26 386.15,-120.15 394.96,-126.04 396.71,-119.26" style=""/>
<text text-anchor="middle" x="642.58" y="-249.79" font-family="Times,serif" font-size="14.00" fill="steelblue" style="">-8.68</text>
</g>
<!-- 5&#45;&gt;11 -->
<g id="edge28" class="edge" data-name="5-&gt;11">

<path fill="none" stroke="black" d="M641.88,-389.95C696.51,-381.46 840.17,-358.96 850,-355.49 914.03,-332.95 919.03,-303.1 983,-280.39 1028.03,-264.41 1058.17,-298.9 1089,-262.39 1145.41,-195.59 822.12,-70 720.1,-32.52" style=""/>
<polygon fill="black" stroke="black" points="721.61,-29.34 711.01,-29.2 719.21,-35.92 721.61,-29.34" style=""/>
<text text-anchor="middle" x="1103.58" y="-203.24" font-family="Times,serif" font-size="14.00" fill="goldenrod" style="">-1.93</text>
</g>
<!-- 6 -->
<g id="node8" class="node" pointer-events="visible" data-name="6">

<ellipse fill="white" stroke="#2ecc71" cx="240" cy="-394.19" rx="20.89" ry="20.89" style=""/>
<text text-anchor="middle" x="240" y="-389.99" font-family="Times,serif" font-size="14.00" fill="#2ecc71" style="">x6</text>
</g>
<!-- 6&#45;&gt;8 -->
<g id="edge29" class="edge" data-name="6-&gt;8">

<path fill="none" stroke="black" d="M260.17,-387.26C300.47,-375.69 394.03,-350.22 474.5,-338.69 545.11,-328.58 726.53,-340.72 795,-320.69 797.43,-319.98 799.88,-319.07 802.28,-318.03" style=""/>
<polygon fill="black" stroke="black" points="803.71,-321.24 811.03,-313.58 800.53,-315 803.71,-321.24" style=""/>
<text text-anchor="middle" x="487.25" y="-342.89" font-family="Times,serif" font-size="14.00" fill="steelblue" style="">4.99</text>
</g>
<!-- 6&#45;&gt;9 -->
<g id="edge30" class="edge" data-name="6-&gt;9">

<path fill="none" stroke="black" d="M257.57,-382.48C302.19,-355.72 424.13,-285.22 534,-245.59 576.03,-230.43 626.68,-219.68 658.62,-213.76" style=""/>
<polygon fill="black" stroke="black" points="659.17,-217.22 668.39,-212 657.93,-210.33 659.17,-217.22" style=""/>
<text text-anchor="middle" x="459.25" y="-296.34" font-family="Times,serif" font-size="14.00" fill="steelblue" style="">3.66</text>
</g>
<!-- 6&#45;&gt;10 -->
<g id="edge31" class="edge" data-name="6-&gt;10">

<path fill="none" stroke="black" d="M244.63,-373.68C251.69,-345.04 266.3,-290.2 284.5,-245.59 295.55,-218.52 300.93,-212.93 315,-187.29 323.58,-171.65 324.92,-167.21 335,-152.49 337.98,-148.14 341.33,-143.66 344.68,-139.38" style=""/>
<polygon fill="black" stroke="black" points="347.37,-141.62 350.93,-131.64 341.93,-137.22 347.37,-141.62" style=""/>
<text text-anchor="middle" x="297.25" y="-249.79" font-family="Times,serif" font-size="14.00" fill="steelblue" style="">8.89</text>
</g>
<!-- 6&#45;&gt;11 -->
<g id="edge32" class="edge" data-name="6-&gt;11">

<path fill="none" stroke="black" d="M219.12,-389.84C160.73,-379.89 0,-348.26 0,-301.54 0,-301.54 0,-301.54 0,-113.34 0,-46.11 521.39,-26.51 657.71,-22.54" style=""/>
<polygon fill="black" stroke="black" points="657.56,-26.04 667.46,-22.26 657.37,-19.04 657.56,-26.04" style=""/>
<text text-anchor="middle" x="12.25" y="-203.24" font-family="Times,serif" font-size="14.00" fill="goldenrod" style="">1.94</text>
</g>
<!-- 7 -->
<g id="node9" class="node" pointer-events="visible" data-name="7">

<ellipse fill="white" stroke="#2ecc71" cx="901" cy="-394.19" rx="20.89" ry="20.89" style=""/>
<text text-anchor="middle" x="901" y="-389.99" font-family="Times,serif" font-size="14.00" fill="#2ecc71" style="">x7</text>
</g>
<!-- 7&#45;&gt;8 -->
<g id="edge33" class="edge" data-name="7-&gt;8">

<path fill="none" stroke="black" d="M902.59,-373.03C902.48,-362.04 900.68,-348.68 894,-338.69 885.7,-326.29 871.76,-317.54 858.92,-311.66" style=""/>
<polygon fill="black" stroke="black" points="860.52,-308.53 849.94,-307.95 857.85,-315 860.52,-308.53" style=""/>
<text text-anchor="middle" x="914.58" y="-342.89" font-family="Times,serif" font-size="14.00" fill="steelblue" style="">-5.23</text>
</g>
<!-- 7&#45;&gt;9 -->
<g id="edge34" class="edge" data-name="7-&gt;9">

<path fill="none" stroke="black" d="M921.25,-387.53C937.34,-383.2 960.47,-377.34 981,-373.49 1043.6,-361.77 1153.7,-392.73 1120,-338.69 1070.24,-258.9 1020.56,-270.92 930,-245.59 844.05,-221.55 816.06,-251.24 730,-227.59 725.9,-226.46 721.7,-224.93 717.65,-223.22" style=""/>
<polygon fill="black" stroke="black" points="719.31,-220.13 708.76,-219.07 716.34,-226.48 719.31,-220.13" style=""/>
<text text-anchor="middle" x="1120.58" y="-296.34" font-family="Times,serif" font-size="14.00" fill="steelblue" style="">-3.57</text>
</g>
<!-- 7&#45;&gt;10 -->
<g id="edge35" class="edge" data-name="7-&gt;10">

<path fill="none" stroke="black" d="M921.04,-387.78C977.16,-372.55 1132.27,-329.78 1139,-320.69 1149.66,-306.3 1149.48,-294.92 1139,-280.39 1134.2,-273.74 866.82,-189.73 859,-187.29 806.4,-170.86 794.1,-162.98 740,-152.49 614.5,-128.14 462.1,-119.32 396.99,-116.5" style=""/>
<polygon fill="black" stroke="black" points="397.17,-113.01 387.03,-116.1 396.88,-120 397.17,-113.01" style=""/>
<text text-anchor="middle" x="1104.58" y="-249.79" font-family="Times,serif" font-size="14.00" fill="steelblue" style="">-8.68</text>
</g>
<!-- 7&#45;&gt;11 -->
<g id="edge36" class="edge" data-name="7-&gt;11">

<path fill="none" stroke="black" d="M921.28,-387.7C937.39,-383.47 960.53,-377.64 981,-373.49 1130.35,-343.22 1361.64,-424.12 1311,-280.39 1291.77,-225.82 1119.42,-133.55 1019,-94.19 954.88,-69.05 935.25,-74.25 868,-59.39 816.87,-48.08 757.33,-35.61 721.7,-28.23" style=""/>
<polygon fill="black" stroke="black" points="722.57,-24.83 712.06,-26.23 721.15,-31.69 722.57,-24.83" style=""/>
<text text-anchor="middle" x="1277.58" y="-203.24" font-family="Times,serif" font-size="14.00" fill="goldenrod" style="">-1.93</text>
</g>
<!-- 8&#45;&gt;9 -->
<g id="edge37" class="edge" data-name="8-&gt;9">

<path fill="none" stroke="black" d="M811.43,-289.47C806.17,-286.5 800.37,-283.28 795,-280.39 779.53,-272.08 774.66,-271.8 759.84,-262.39 755.1,-259.39 732.92,-242.16 714.81,-227.97" style=""/>
<polygon fill="black" stroke="black" points="717.04,-225.27 707.02,-221.85 712.72,-230.78 717.04,-225.27" style=""/>
<text text-anchor="middle" x="773.58" y="-249.79" font-family="Times,serif" font-size="14.00" fill="steelblue" style="">-6.47</text>
</g>
<!-- 8&#45;&gt;10 -->
<g id="edge38" class="edge" data-name="8-&gt;10">

<path fill="none" stroke="black" d="M819.17,-282.55C812.3,-271.42 802.52,-256.9 792,-245.59 763.73,-215.18 753.88,-209.82 719,-187.29 690.48,-168.87 683.42,-162.56 651,-152.49 561.83,-124.8 450.82,-117.74 397.1,-115.94" style=""/>
<polygon fill="black" stroke="black" points="397.23,-112.45 387.13,-115.66 397.03,-119.44 397.23,-112.45" style=""/>
<text text-anchor="middle" x="791.08" y="-203.24" font-family="Times,serif" font-size="14.00" fill="steelblue" style="">-15.17</text>
</g>
<!-- 8&#45;&gt;11 -->
<g id="edge39" class="edge" data-name="8-&gt;11">

<path fill="none" stroke="black" d="M849.48,-297.44C883.12,-292.97 944.94,-279.96 930,-245.59 886.02,-144.42 771.31,-68.22 717.99,-37.09" style=""/>
<polygon fill="black" stroke="black" points="719.92,-34.15 709.5,-32.22 716.44,-40.23 719.92,-34.15" style=""/>
<text text-anchor="middle" x="894.58" y="-156.69" font-family="Times,serif" font-size="14.00" fill="goldenrod" style="">-6.71</text>
</g>
<!-- 9&#45;&gt;10 -->
<g id="edge40" class="edge" data-name="9-&gt;10">

<path fill="none" stroke="black" d="M671.61,-198.44C656.09,-191.44 633.49,-180.64 614.84,-169.29 604.07,-162.74 603.61,-157.38 592,-152.49 526.42,-124.9 442.17,-117.72 397.01,-115.9" style=""/>
<polygon fill="black" stroke="black" points="397.23,-112.41 387.12,-115.58 397,-119.4 397.23,-112.41" style=""/>
<text text-anchor="middle" x="632.08" y="-156.69" font-family="Times,serif" font-size="14.00" fill="steelblue" style="">-17.41</text>
</g>
<!-- 9&#45;&gt;11 -->
<g id="edge41" class="edge" data-name="9-&gt;11">

<path fill="none" stroke="black" d="M690,-186.67C690,-154.75 690,-91.59 690,-53.35" style=""/>
<polygon fill="black" stroke="black" points="693.5,-53.4 690,-43.4 686.5,-53.4 693.5,-53.4" style=""/>
<text text-anchor="middle" x="702.25" y="-110.14" font-family="Times,serif" font-size="14.00" fill="goldenrod" style="">8.36</text>
</g>
<!-- 10&#45;&gt;11 -->
<g id="edge42" class="edge" data-name="10-&gt;11">

<path fill="none" stroke="black" d="M384.36,-107.88C438.63,-92.58 592.61,-49.16 658.96,-30.45" style=""/>
<polygon fill="black" stroke="black" points="659.79,-33.85 668.46,-27.77 657.89,-27.11 659.79,-33.85" style=""/>
<text text-anchor="middle" x="565.08" y="-63.59" font-family="Times,serif" font-size="14.00" fill="goldenrod" style="">-18.87</text>
</g>
</g>
</svg>