<?xml version="1.0" standalone="no"?>
<svg xmlns="http://www.w3.org/2000/svg" xmlns:xlink="http://www.w3.org/1999/xlink" width="1289pt" height="423pt" viewBox="0.00 0.00 1289.06 422.88">
<g id="graph0" class="graph" transform="translate(4,418.8800048828125) scale(1)" data-name="">
<polygon fill="white" stroke="none" points="-4,4 -4,-418.88 1285.06,-418.88 1285.06,4 -4,4" style=""/>
<!-- &#45;1 -->
<g id="node1" class="node" pointer-events="visible" data-name="-1">

<ellipse fill="none" stroke="#2ecc71" stroke-width="2" cx="471.9" cy="-394.19" rx="18" ry="18" style=""/>
<text text-anchor="middle" x="471.9" y="-389.99" font-family="Times,serif" font-size="14.00" fill="#2ecc71" style="">1</text>
</g>
<!-- 8 -->
<g id="node10" class="node" pointer-events="visible" data-name="8">

<ellipse fill="white" stroke="#3498db" cx="731.9" cy="-300.54" rx="20.3" ry="20.3" style=""/>
<text text-anchor="middle" x="731.9" y="-296.34" font-family="Times,serif" font-size="14.00" fill="#3498db" style="">z0</text>
</g>
<!-- &#45;1&#45;&gt;8 -->
<g id="edge1" class="edge" data-name="-1-&gt;8">

<path fill="none" stroke="black" d="M488.69,-387.43C518.43,-377.29 582.36,-355.68 636.74,-338.69 663.79,-330.25 671.8,-331.72 697.9,-320.69 700.23,-319.71 702.61,-318.6 704.97,-317.43" style=""/>
<polygon fill="black" stroke="black" points="706.49,-320.59 713.65,-312.78 703.18,-314.42 706.49,-320.59" style=""/>
<text text-anchor="middle" x="650.48" y="-342.89" font-family="Times,serif" font-size="14.00" fill="steelblue" style="">-0.68</text>
</g>
<!-- 9 -->
<g id="node11" class="node" pointer-events="visible" data-name="9">

<ellipse fill="white" stroke="#3498db" cx="504.9" cy="-207.44" rx="20.3" ry="20.3" style=""/>
<text text-anchor="middle" x="504.9" y="-203.24" font-family="Times,serif" font-size="14.00" fill="#3498db" style="">z1</text>
</g>
<!-- &#45;1&#45;&gt;9 -->
<g id="edge2" class="edge" data-name="-1-&gt;9">

<path fill="none" stroke="black" d="M481.01,-378.31C484.7,-371.58 488.62,-363.38 490.9,-355.49 502.15,-316.51 504.84,-269.55 505.26,-239.36" style=""/>
<polygon fill="black" stroke="black" points="508.76,-239.43 505.31,-229.41 501.76,-239.4 508.76,-239.43" style=""/>
<text text-anchor="middle" x="516.15" y="-296.34" font-family="Times,serif" font-size="14.00" fill="steelblue" style="">3.71</text>
</g>
<!-- 10 -->
<g id="node12" class="node" pointer-events="visible" data-name="10">

<ellipse fill="white" stroke="#3498db" cx="504.9" cy="-114.34" rx="20.3" ry="20.3" style=""/>
<text text-anchor="middle" x="504.9" y="-110.14" font-family="Times,serif" font-size="14.00" fill="#3498db" style="">z2</text>
</g>
<!-- &#45;1&#45;&gt;10 -->
<g id="edge3" class="edge" data-name="-1-&gt;10">

<path fill="none" stroke="black" d="M456.03,-385.27C419.04,-365.59 331.45,-311.26 348.4,-245.59 360.22,-199.81 363.82,-183.05 399.9,-152.49 420.88,-134.72 450.96,-125.22 473.54,-120.3" style=""/>
<polygon fill="black" stroke="black" points="473.97,-123.78 483.1,-118.41 472.61,-116.91 473.97,-123.78" style=""/>
<text text-anchor="middle" x="361.15" y="-249.79" font-family="Times,serif" font-size="14.00" fill="steelblue" style="">2.21</text>
</g>
<!-- 11 -->
<g id="node13" class="node" pointer-events="visible" data-name="11">

<ellipse fill="white" stroke="#e74c3c" cx="123.9" cy="-20.69" rx="20.89" ry="20.89" style=""/>
<text text-anchor="middle" x="123.9" y="-16.49" font-family="Times,serif" font-size="14.00" fill="#e74c3c" style="">y0</text>
</g>
<!-- &#45;1&#45;&gt;11 -->
<g id="edge4" class="edge" data-name="-1-&gt;11">

<path fill="none" stroke="black" d="M454.84,-387.47C391.85,-365.99 174.19,-288.21 137.74,-227.59 105.07,-173.26 110.95,-95.67 117.7,-52.93" style=""/>
<polygon fill="black" stroke="black" points="121.14,-53.53 119.38,-43.09 114.24,-52.35 121.14,-53.53" style=""/>
<text text-anchor="middle" x="152.48" y="-203.24" font-family="Times,serif" font-size="14.00" fill="goldenrod" style="">-3.78</text>
</g>
<!-- 0 -->
<g id="node2" class="node" pointer-events="visible" data-name="0">

<ellipse fill="white" stroke="#2ecc71" cx="789.9" cy="-394.19" rx="20.89" ry="20.89" style=""/>
<text text-anchor="middle" x="789.9" y="-389.99" font-family="Times,serif" font-size="14.00" fill="#2ecc71" style="">x0</text>
</g>
<!-- 0&#45;&gt;8 -->
<g id="edge5" class="edge" data-name="0-&gt;8">

<path fill="none" stroke="black" d="M778.99,-375.95C770.43,-362.42 758.37,-343.37 748.6,-327.92" style=""/>
<polygon fill="black" stroke="black" points="751.68,-326.25 743.37,-319.67 745.76,-329.99 751.68,-326.25" style=""/>
<text text-anchor="middle" x="776.15" y="-342.89" font-family="Times,serif" font-size="14.00" fill="steelblue" style="">1.55</text>
</g>
<!-- 0&#45;&gt;9 -->
<g id="edge6" class="edge" data-name="0-&gt;9">

<path fill="none" stroke="black" d="M791.78,-373.25C792.24,-367.52 792.67,-361.27 792.9,-355.49 793.2,-348.03 794.75,-345.93 792.9,-338.69 785.56,-310.06 782.28,-300.8 760.9,-280.39 735.48,-256.12 723.18,-256.88 689.9,-245.59 661.85,-236.08 581.11,-221.47 536.12,-213.71" style=""/>
<polygon fill="black" stroke="black" points="536.92,-210.29 526.47,-212.05 535.74,-217.19 536.92,-210.29" style=""/>
<text text-anchor="middle" x="801.48" y="-296.34" font-family="Times,serif" font-size="14.00" fill="steelblue" style="">-1.77</text>
</g>
<!-- 0&#45;&gt;10 -->
<g id="edge7" class="edge" data-name="0-&gt;10">

<path fill="none" stroke="black" d="M810.86,-390.03C841.67,-384.29 894.18,-369.76 880.9,-338.69 821.71,-200.25 742.14,-195.66 597.9,-152.49 567.95,-143.52 557.97,-148.26 529.9,-134.49 529.79,-134.44 529.69,-134.38 529.58,-134.33" style=""/>
<polygon fill="black" stroke="black" points="531.5,-131.4 521.16,-129.1 527.81,-137.35 531.5,-131.4" style=""/>
<text text-anchor="middle" x="850.48" y="-249.79" font-family="Times,serif" font-size="14.00" fill="steelblue" style="">-1.16</text>
</g>
<!-- 0&#45;&gt;11 -->
<g id="edge8" class="edge" data-name="0-&gt;11">

<path fill="none" stroke="black" d="M810.43,-389.04C842.2,-382.51 905.09,-369.18 957.9,-355.49 983.47,-348.87 989.47,-345.81 1014.9,-338.69 1045.01,-330.27 1063.83,-345.47 1082.9,-320.69 1093.83,-306.5 1089.88,-296.89 1082.9,-280.39 1024.07,-141.39 941.18,-144.57 798.9,-94.19 732.35,-70.62 713.75,-69.7 643.9,-59.39 460.78,-32.35 238.39,-24.45 156.33,-22.37" style=""/>
<polygon fill="black" stroke="black" points="156.42,-18.87 146.34,-22.13 156.25,-25.87 156.42,-18.87" style=""/>
<text text-anchor="middle" x="1068.48" y="-203.24" font-family="Times,serif" font-size="14.00" fill="goldenrod" style="">-1.44</text>
</g>
<!-- 1 -->
<g id="node3" class="node" pointer-events="visible" data-name="1">

<ellipse fill="white" stroke="#2ecc71" cx="1083.9" cy="-394.19" rx="20.89" ry="20.89" style=""/>
<text text-anchor="middle" x="1083.9" y="-389.99" font-family="Times,serif" font-size="14.00" fill="#2ecc71" style="">x1</text>
</g>
<!-- 1&#45;&gt;8 -->
<g id="edge9" class="edge" data-name="1-&gt;8">

<path fill="none" stroke="black" d="M1067.47,-380.99C1063.48,-378.31 1059.13,-375.65 1054.9,-373.49 959.1,-324.77 924.78,-339.17 818.9,-320.69 800.08,-317.41 779.17,-312.84 762.57,-308.99" style=""/>
<polygon fill="black" stroke="black" points="763.85,-305.69 753.32,-306.8 762.25,-312.5 763.85,-305.69" style=""/>
<text text-anchor="middle" x="1025.15" y="-342.89" font-family="Times,serif" font-size="14.00" fill="steelblue" style="">2.05</text>
</g>
<!-- 1&#45;&gt;9 -->
<g id="edge10" class="edge" data-name="1-&gt;9">

<path fill="none" stroke="black" d="M1088.06,-373.34C1094.03,-338.6 1099.94,-268.3 1055.9,-245.59 1012.81,-223.37 668.13,-232.58 619.9,-227.59 591.27,-224.63 558.96,-219.05 535.89,-214.67" style=""/>
<polygon fill="black" stroke="black" points="536.71,-211.26 526.23,-212.8 535.38,-218.14 536.71,-211.26" style=""/>
<text text-anchor="middle" x="1106.48" y="-296.34" font-family="Times,serif" font-size="14.00" fill="steelblue" style="">-0.70</text>
</g>
<!-- 1&#45;&gt;10 -->
<g id="edge11" class="edge" data-name="1-&gt;10">

<path fill="none" stroke="black" d="M1099.45,-379.76C1113.61,-366.43 1133.52,-344.57 1141.9,-320.69 1152.95,-289.19 1157.77,-273.8 1139.9,-245.59 1110.92,-199.84 1083.09,-207.64 1032.9,-187.29 979.46,-165.62 964.84,-161.65 907.9,-152.49 824.87,-139.13 608.88,-163.38 529.9,-134.49 529.79,-134.45 529.68,-134.41 529.56,-134.36" style=""/>
<polygon fill="black" stroke="black" points="531.4,-131.38 520.95,-129.62 528.02,-137.51 531.4,-131.38" style=""/>
<text text-anchor="middle" x="1162.48" y="-249.79" font-family="Times,serif" font-size="14.00" fill="steelblue" style="">-2.40</text>
</g>
<!-- 1&#45;&gt;11 -->
<g id="edge12" class="edge" data-name="1-&gt;11">

<path fill="none" stroke="black" d="M1101.21,-381.95C1112.56,-374.54 1127.69,-364.55 1140.9,-355.49 1162.93,-340.39 1171.67,-340.21 1189.9,-320.69 1223.02,-285.24 1233.74,-274.29 1246.9,-227.59 1251.76,-210.35 1255.67,-202.91 1246.9,-187.29 1232.38,-161.4 1216.22,-166.21 1189.9,-152.49 1132.67,-122.65 1118.84,-112.33 1056.9,-94.19 882.49,-43.09 300.33,-25.94 156.33,-22.42" style=""/>
<polygon fill="black" stroke="black" points="156.47,-18.93 146.38,-22.19 156.3,-25.92 156.47,-18.93" style=""/>
<text text-anchor="middle" x="1266.48" y="-203.24" font-family="Times,serif" font-size="14.00" fill="goldenrod" style="">-1.46</text>
</g>
<!-- 2 -->
<g id="node4" class="node" pointer-events="visible" data-name="2">

<ellipse fill="white" stroke="#2ecc71" cx="1024.9" cy="-394.19" rx="20.89" ry="20.89" style=""/>
<text text-anchor="middle" x="1024.9" y="-389.99" font-family="Times,serif" font-size="14.00" fill="#2ecc71" style="">x2</text>
</g>
<!-- 2&#45;&gt;8 -->
<g id="edge13" class="edge" data-name="2-&gt;8">

<path fill="none" stroke="black" d="M1005.82,-385.15C997.05,-381.5 986.48,-377.19 976.9,-373.49 934.56,-357.14 924.31,-351.93 880.9,-338.69 840.6,-326.4 793.28,-315.13 762.96,-308.3" style=""/>
<polygon fill="black" stroke="black" points="763.84,-304.91 753.32,-306.15 762.32,-311.74 763.84,-304.91" style=""/>
<text text-anchor="middle" x="941.15" y="-342.89" font-family="Times,serif" font-size="14.00" fill="steelblue" style="">0.95</text>
</g>
<!-- 2&#45;&gt;9 -->
<g id="edge14" class="edge" data-name="2-&gt;9">

<path fill="none" stroke="black" d="M1034.07,-374.87C1048.19,-343.73 1070.33,-280.5 1036.9,-245.59 1020.86,-228.85 642.96,-230 619.9,-227.59 591.27,-224.6 558.96,-219.02 535.9,-214.66" style=""/>
<polygon fill="black" stroke="black" points="536.71,-211.25 526.23,-212.79 535.38,-218.12 536.71,-211.25" style=""/>
<text text-anchor="middle" x="1066.15" y="-296.34" font-family="Times,serif" font-size="14.00" fill="steelblue" style="">1.19</text>
</g>
<!-- 2&#45;&gt;10 -->
<g id="edge15" class="edge" data-name="2-&gt;10">

<path fill="none" stroke="black" d="M1041.83,-381.51C1069.75,-362.17 1122.61,-325.18 1124.9,-320.69 1133.04,-304.74 1132.88,-296.43 1124.9,-280.39 1112.55,-255.56 1005.88,-196.88 982.9,-187.29 952.46,-174.58 941.37,-181.91 910.9,-169.29 897.49,-163.74 896.78,-156.72 882.9,-152.49 807.76,-129.6 603.62,-161.59 529.9,-134.49 529.79,-134.45 529.68,-134.41 529.56,-134.36" style=""/>
<polygon fill="black" stroke="black" points="531.4,-131.38 520.95,-129.62 528.02,-137.51 531.4,-131.38" style=""/>
<text text-anchor="middle" x="1121.48" y="-249.79" font-family="Times,serif" font-size="14.00" fill="steelblue" style="">-0.07</text>
</g>
<!-- 2&#45;&gt;11 -->
<g id="edge16" class="edge" data-name="2-&gt;11">

<path fill="none" stroke="black" d="M1041.33,-380.99C1045.33,-378.32 1049.67,-375.65 1053.9,-373.49 1074.95,-362.78 1083.69,-367.71 1103.9,-355.49 1177.2,-311.21 1246.94,-257.5 1197.9,-187.29 1129.05,-88.72 1059.6,-126.89 943.9,-94.19 868.85,-72.97 849.25,-69.41 771.9,-59.39 537.43,-29 252.05,-23.1 156.68,-21.96" style=""/>
<polygon fill="black" stroke="black" points="156.81,-18.47 146.77,-21.86 156.73,-25.47 156.81,-18.47" style=""/>
<text text-anchor="middle" x="1228.48" y="-203.24" font-family="Times,serif" font-size="14.00" fill="goldenrod" style="">-0.56</text>
</g>
<!-- 3 -->
<g id="node5" class="node" pointer-events="visible" data-name="3">

<ellipse fill="white" stroke="#2ecc71" cx="381.9" cy="-394.19" rx="20.89" ry="20.89" style=""/>
<text text-anchor="middle" x="381.9" y="-389.99" font-family="Times,serif" font-size="14.00" fill="#2ecc71" style="">x3</text>
</g>
<!-- 3&#45;&gt;8 -->
<g id="edge17" class="edge" data-name="3-&gt;8">

<path fill="none" stroke="black" d="M401.76,-386.96C414.16,-383.08 430.46,-377.99 444.9,-373.49 494.88,-357.95 506.25,-349.79 557.4,-338.69 618.92,-325.34 638.14,-340.51 697.9,-320.69 700.3,-319.9 702.73,-318.92 705.12,-317.84" style=""/>
<polygon fill="black" stroke="black" points="706.58,-321.03 713.86,-313.33 703.37,-314.81 706.58,-321.03" style=""/>
<text text-anchor="middle" x="569.15" y="-342.89" font-family="Times,serif" font-size="14.00" fill="steelblue" style="">0.32</text>
</g>
<!-- 3&#45;&gt;9 -->
<g id="edge18" class="edge" data-name="3-&gt;9">

<path fill="none" stroke="black" d="M393.25,-376.14C414.87,-343.67 462.07,-272.77 487.63,-234.38" style=""/>
<polygon fill="black" stroke="black" points="490.46,-236.44 493.09,-226.18 484.64,-232.56 490.46,-236.44" style=""/>
<text text-anchor="middle" x="468.15" y="-296.34" font-family="Times,serif" font-size="14.00" fill="steelblue" style="">1.07</text>
</g>
<!-- 3&#45;&gt;10 -->
<g id="edge19" class="edge" data-name="3-&gt;10">

<path fill="none" stroke="black" d="M362.83,-384.98C340.17,-374.04 303.45,-352.32 287.9,-320.69 280,-304.62 282.71,-297.54 287.9,-280.39 308.1,-213.61 320.6,-190.8 378.9,-152.49 407.79,-133.51 446.64,-123.98 473.53,-119.36" style=""/>
<polygon fill="black" stroke="black" points="473.78,-122.87 483.11,-117.86 472.69,-115.95 473.78,-122.87" style=""/>
<text text-anchor="middle" x="314.48" y="-249.79" font-family="Times,serif" font-size="14.00" fill="steelblue" style="">-0.92</text>
</g>
<!-- 3&#45;&gt;11 -->
<g id="edge20" class="edge" data-name="3-&gt;11">

<path fill="none" stroke="black" d="M361.19,-390.63C300.17,-381.77 122.24,-346.15 72.74,-227.59 47.07,-166.13 83.2,-88.75 106.62,-48.62" style=""/>
<polygon fill="black" stroke="black" points="109.6,-50.46 111.76,-40.09 103.61,-46.85 109.6,-50.46" style=""/>
<text text-anchor="middle" x="87.48" y="-203.24" font-family="Times,serif" font-size="14.00" fill="goldenrod" style="">-1.09</text>
</g>
<!-- 4 -->
<g id="node6" class="node" pointer-events="visible" data-name="4">

<ellipse fill="white" stroke="#2ecc71" cx="647.9" cy="-394.19" rx="20.89" ry="20.89" style=""/>
<text text-anchor="middle" x="647.9" y="-389.99" font-family="Times,serif" font-size="14.00" fill="#2ecc71" style="">x4</text>
</g>
<!-- 4&#45;&gt;8 -->
<g id="edge21" class="edge" data-name="4-&gt;8">

<path fill="none" stroke="black" d="M657.54,-375.17C664.01,-363.99 673.19,-349.71 683.4,-338.69 689.99,-331.58 698.06,-324.81 705.71,-319.05" style=""/>
<polygon fill="black" stroke="black" points="707.73,-321.9 713.8,-313.22 703.64,-316.22 707.73,-321.9" style=""/>
<text text-anchor="middle" x="695.15" y="-342.89" font-family="Times,serif" font-size="14.00" fill="steelblue" style="">0.69</text>
</g>
<!-- 4&#45;&gt;9 -->
<g id="edge22" class="edge" data-name="4-&gt;9">

<path fill="none" stroke="black" d="M639.75,-374.6C623.26,-337.21 586.64,-255.61 576.9,-245.59 565.18,-233.54 548.71,-224.64 534.47,-218.58" style=""/>
<polygon fill="black" stroke="black" points="536.14,-215.47 525.55,-215.05 533.56,-221.98 536.14,-215.47" style=""/>
<text text-anchor="middle" x="629.48" y="-296.34" font-family="Times,serif" font-size="14.00" fill="steelblue" style="">-1.72</text>
</g>
<!-- 4&#45;&gt;10 -->
<g id="edge23" class="edge" data-name="4-&gt;10">

<path fill="none" stroke="black" d="M627.08,-391.86C599.2,-389.13 549.35,-380.81 515.9,-355.49 462.62,-315.17 455.15,-291.87 436.9,-227.59 427.69,-195.14 427.49,-179.35 447.9,-152.49 455.35,-142.68 466.18,-134.7 476.41,-128.69" style=""/>
<polygon fill="black" stroke="black" points="477.84,-131.9 484.96,-124.05 474.5,-125.74 477.84,-131.9" style=""/>
<text text-anchor="middle" x="460.15" y="-249.79" font-family="Times,serif" font-size="14.00" fill="steelblue" style="">0.50</text>
</g>
<!-- 4&#45;&gt;11 -->
<g id="edge24" class="edge" data-name="4-&gt;11">

<path fill="none" stroke="black" d="M627.14,-389.69C597.27,-384.31 540.72,-372.76 494.9,-355.49 327.59,-292.46 188.95,-114.16 141.47,-47.38" style=""/>
<polygon fill="black" stroke="black" points="144.62,-45.77 136,-39.6 138.89,-49.79 144.62,-45.77" style=""/>
<text text-anchor="middle" x="311.48" y="-203.24" font-family="Times,serif" font-size="14.00" fill="goldenrod" style="">-1.65</text>
</g>
<!-- 5 -->
<g id="node7" class="node" pointer-events="visible" data-name="5">

<ellipse fill="white" stroke="#2ecc71" cx="722.9" cy="-394.19" rx="20.89" ry="20.89" style=""/>
<text text-anchor="middle" x="722.9" y="-389.99" font-family="Times,serif" font-size="14.00" fill="#2ecc71" style="">x5</text>
</g>
<!-- 5&#45;&gt;8 -->
<g id="edge25" class="edge" data-name="5-&gt;8">

<path fill="none" stroke="black" d="M716.03,-374.16C713.16,-363.64 711.03,-350.38 713.74,-338.69 714.52,-335.31 715.66,-331.87 716.99,-328.53" style=""/>
<polygon fill="black" stroke="black" points="720.05,-330.25 721.06,-319.7 713.69,-327.32 720.05,-330.25" style=""/>
<text text-anchor="middle" x="727.48" y="-342.89" font-family="Times,serif" font-size="14.00" fill="steelblue" style="">-2.20</text>
</g>
<!-- 5&#45;&gt;9 -->
<g id="edge26" class="edge" data-name="5-&gt;9">

<path fill="none" stroke="black" d="M712.45,-375.98C695.53,-348.41 662.45,-295.9 646.9,-280.39 615,-248.59 566.16,-228.12 534.88,-217.44" style=""/>
<polygon fill="black" stroke="black" points="536.25,-214.2 525.66,-214.42 534.07,-220.86 536.25,-214.2" style=""/>
<text text-anchor="middle" x="688.15" y="-296.34" font-family="Times,serif" font-size="14.00" fill="steelblue" style="">0.80</text>
</g>
<!-- 5&#45;&gt;10 -->
<g id="edge27" class="edge" data-name="5-&gt;10">

<path fill="none" stroke="black" d="M704.43,-383.97C696.43,-380.28 686.86,-376.26 677.9,-373.49 636.41,-360.71 617.99,-379.61 581.9,-355.49 548.76,-333.35 558.6,-310.85 532.9,-280.39 510.63,-254 489.72,-259.24 475.9,-227.59 463.6,-199.44 476.28,-164.96 488.52,-141.7" style=""/>
<polygon fill="black" stroke="black" points="491.45,-143.62 493.28,-133.18 485.34,-140.2 491.45,-143.62" style=""/>
<text text-anchor="middle" x="523.15" y="-249.79" font-family="Times,serif" font-size="14.00" fill="steelblue" style="">0.35</text>
</g>
<!-- 5&#45;&gt;11 -->
<g id="edge28" class="edge" data-name="5-&gt;11">

<path fill="none" stroke="black" d="M732.21,-375.51C747.75,-346.73 779.11,-291.8 797.9,-280.39 862.71,-241.04 998.66,-313.48 964.9,-245.59 908.41,-131.99 843,-135.08 722.9,-94.19 516.02,-23.75 248.5,-19.97 156.58,-20.99" style=""/>
<polygon fill="black" stroke="black" points="156.75,-17.48 146.8,-21.12 156.85,-24.48 156.75,-17.48" style=""/>
<text text-anchor="middle" x="968.48" y="-203.24" font-family="Times,serif" font-size="14.00" fill="goldenrod" style="">-0.36</text>
</g>
<!-- 6 -->
<g id="node8" class="node" pointer-events="visible" data-name="6">

<ellipse fill="white" stroke="#2ecc71" cx="235.9" cy="-394.19" rx="20.89" ry="20.89" style=""/>
<text text-anchor="middle" x="235.9" y="-389.99" font-family="Times,serif" font-size="14.00" fill="#2ecc71" style="">x6</text>
</g>
<!-- 6&#45;&gt;8 -->
<g id="edge29" class="edge" data-name="6-&gt;8">

<path fill="none" stroke="black" d="M256.09,-387.42C296.44,-376.13 390.06,-351.14 470.4,-338.69 570.63,-323.17 600.88,-350.28 697.9,-320.69 700.32,-319.96 702.76,-319.02 705.16,-317.97" style=""/>
<polygon fill="black" stroke="black" points="706.6,-321.17 713.91,-313.5 703.41,-314.94 706.6,-321.17" style=""/>
<text text-anchor="middle" x="483.15" y="-342.89" font-family="Times,serif" font-size="14.00" fill="steelblue" style="">1.09</text>
</g>
<!-- 6&#45;&gt;9 -->
<g id="edge30" class="edge" data-name="6-&gt;9">

<path fill="none" stroke="black" d="M247.24,-376.25C268.69,-345.54 318.25,-280.63 375.9,-245.59 406.26,-227.14 446.21,-217.49 473.55,-212.7" style=""/>
<polygon fill="black" stroke="black" points="473.99,-216.18 483.3,-211.12 472.87,-209.27 473.99,-216.18" style=""/>
<text text-anchor="middle" x="344.48" y="-296.34" font-family="Times,serif" font-size="14.00" fill="steelblue" style="">-0.04</text>
</g>
<!-- 6&#45;&gt;10 -->
<g id="edge31" class="edge" data-name="6-&gt;10">

<path fill="none" stroke="black" d="M237.54,-372.93C240.42,-343.84 247.86,-288.95 265.4,-245.59 276.95,-217.03 281.62,-209.57 302.9,-187.29 348.83,-139.2 429.01,-123.19 473.28,-117.9" style=""/>
<polygon fill="black" stroke="black" points="473.42,-121.41 482.99,-116.87 472.68,-114.45 473.42,-121.41" style=""/>
<text text-anchor="middle" x="278.15" y="-249.79" font-family="Times,serif" font-size="14.00" fill="steelblue" style="">1.23</text>
</g>
<!-- 6&#45;&gt;11 -->
<g id="edge32" class="edge" data-name="6-&gt;11">

<path fill="none" stroke="black" d="M215.44,-387.96C182.55,-378.77 117.11,-357.13 72.9,-320.69 33.92,-288.57 22.92,-275.76 7.74,-227.59 -16.36,-151.13 21.08,-120.56 72.9,-59.39 79.65,-51.42 88.4,-44.18 96.75,-38.22" style=""/>
<polygon fill="black" stroke="black" points="98.61,-41.18 104.95,-32.7 94.7,-35.38 98.61,-41.18" style=""/>
<text text-anchor="middle" x="22.48" y="-203.24" font-family="Times,serif" font-size="14.00" fill="goldenrod" style="">-1.09</text>
</g>
<!-- 7 -->
<g id="node9" class="node" pointer-events="visible" data-name="7">

<ellipse fill="white" stroke="#2ecc71" cx="946.9" cy="-394.19" rx="20.89" ry="20.89" style=""/>
<text text-anchor="middle" x="946.9" y="-389.99" font-family="Times,serif" font-size="14.00" fill="#2ecc71" style="">x7</text>
</g>
<!-- 7&#45;&gt;8 -->
<g id="edge33" class="edge" data-name="7-&gt;8">

<path fill="none" stroke="black" d="M927.82,-385.05C890.11,-368.98 805.84,-333.06 761.1,-313.99" style=""/>
<polygon fill="black" stroke="black" points="762.59,-310.82 752.02,-310.12 759.85,-317.26 762.59,-310.82" style=""/>
<text text-anchor="middle" x="864.15" y="-342.89" font-family="Times,serif" font-size="14.00" fill="steelblue" style="">0.15</text>
</g>
<!-- 7&#45;&gt;9 -->
<g id="edge34" class="edge" data-name="7-&gt;9">

<path fill="none" stroke="black" d="M941.17,-373.67C930.36,-340.73 903.55,-274.84 854.9,-245.59 810.01,-218.61 671.89,-233.9 619.9,-227.59 591.33,-224.12 559.01,-218.6 535.93,-214.37" style=""/>
<polygon fill="black" stroke="black" points="536.73,-210.96 526.26,-212.58 535.45,-217.84 536.73,-210.96" style=""/>
<text text-anchor="middle" x="930.15" y="-296.34" font-family="Times,serif" font-size="14.00" fill="steelblue" style="">0.51</text>
</g>
<!-- 7&#45;&gt;10 -->
<g id="edge35" class="edge" data-name="7-&gt;10">

<path fill="none" stroke="black" d="M953.57,-374.24C955.34,-368.32 957.01,-361.7 957.9,-355.49 962.67,-322.1 966.86,-307.59 946.9,-280.39 859.46,-161.22 784.49,-183.17 639.9,-152.49 591.44,-142.21 575.37,-154.14 529.9,-134.49 529.79,-134.44 529.68,-134.39 529.57,-134.35" style=""/>
<polygon fill="black" stroke="black" points="531.45,-131.39 521.06,-129.34 527.9,-137.42 531.45,-131.39" style=""/>
<text text-anchor="middle" x="946.48" y="-249.79" font-family="Times,serif" font-size="14.00" fill="steelblue" style="">-0.23</text>
</g>
<!-- 7&#45;&gt;11 -->
<g id="edge36" class="edge" data-name="7-&gt;11">

<path fill="none" stroke="black" d="M966.01,-385.23C974.79,-381.6 985.35,-377.28 994.9,-373.49 1088.16,-336.51 1229.69,-333.26 1180.9,-245.59 1150.25,-190.52 928.48,-111.26 874.9,-94.19 801.83,-70.91 781.9,-69.62 705.9,-59.39 497.93,-31.38 245.24,-24.01 156.55,-22.23" style=""/>
<polygon fill="black" stroke="black" points="156.72,-18.73 146.66,-22.04 156.59,-25.73 156.72,-18.73" style=""/>
<text text-anchor="middle" x="1179.48" y="-203.24" font-family="Times,serif" font-size="14.00" fill="goldenrod" style="">-0.61</text>
</g>
<!-- 8&#45;&gt;9 -->
<g id="edge37" class="edge" data-name="8-&gt;9">

<path fill="none" stroke="black" d="M714.27,-289.58C709.01,-286.61 703.22,-283.36 697.9,-280.39 683.48,-272.34 679.45,-271.07 665.4,-262.39 654.17,-255.45 652.88,-251.14 640.9,-245.59 606.7,-229.75 564.43,-219.52 536.18,-213.89" style=""/>
<polygon fill="black" stroke="black" points="536.96,-210.47 526.48,-212.04 535.64,-217.35 536.96,-210.47" style=""/>
<text text-anchor="middle" x="677.15" y="-249.79" font-family="Times,serif" font-size="14.00" fill="steelblue" style="">0.70</text>
</g>
<!-- 8&#45;&gt;10 -->
<g id="edge38" class="edge" data-name="8-&gt;10">

<path fill="none" stroke="black" d="M721.98,-282.32C715.01,-271.09 704.97,-256.55 693.9,-245.59 643.33,-195.54 571.37,-151.95 532.45,-130.15" style=""/>
<polygon fill="black" stroke="black" points="534.61,-127.35 524.17,-125.57 531.23,-133.47 534.61,-127.35" style=""/>
<text text-anchor="middle" x="685.15" y="-203.24" font-family="Times,serif" font-size="14.00" fill="steelblue" style="">2.90</text>
</g>
<!-- 8&#45;&gt;11 -->
<g id="edge39" class="edge" data-name="8-&gt;11">

<path fill="none" stroke="black" d="M749.23,-289.49C755.56,-286.17 762.9,-282.74 769.9,-280.39 814.12,-265.57 893.07,-285.48 868.9,-245.59 774.93,-90.52 680.57,-108.03 505.9,-59.39 380.19,-24.38 223.3,-20.87 156.47,-21.16" style=""/>
<polygon fill="black" stroke="black" points="156.55,-17.66 146.58,-21.24 156.61,-24.66 156.55,-17.66" style=""/>
<text text-anchor="middle" x="823.48" y="-156.69" font-family="Times,serif" font-size="14.00" fill="goldenrod" style="">-1.09</text>
</g>
<!-- 9&#45;&gt;10 -->
<g id="edge40" class="edge" data-name="9-&gt;10">

<path fill="none" stroke="black" d="M504.9,-186.67C504.9,-174.85 504.9,-159.58 504.9,-146.2" style=""/>
<polygon fill="black" stroke="black" points="508.4,-146.58 504.9,-136.58 501.4,-146.58 508.4,-146.58" style=""/>
<text text-anchor="middle" x="517.15" y="-156.69" font-family="Times,serif" font-size="14.00" fill="steelblue" style="">2.40</text>
</g>
<!-- 9&#45;&gt;11 -->
<g id="edge41" class="edge" data-name="9-&gt;11">

<path fill="none" stroke="black" d="M519.27,-192.63C524.99,-186.15 530.92,-177.95 533.9,-169.29 544.76,-137.73 554.7,-120.29 533.9,-94.19 487,-35.34 245.19,-24.26 156.53,-22.18" style=""/>
<polygon fill="black" stroke="black" points="156.66,-18.68 146.59,-21.97 156.51,-25.68 156.66,-18.68" style=""/>
<text text-anchor="middle" x="560.48" y="-110.14" font-family="Times,serif" font-size="14.00" fill="goldenrod" style="">-6.58</text>
</g>
<!-- 10&#45;&gt;11 -->
<g id="edge42" class="edge" data-name="10-&gt;11">

<path fill="none" stroke="black" d="M484.95,-108.54C422.6,-93.54 231.04,-47.46 155.24,-29.23" style=""/>
<polygon fill="black" stroke="black" points="156.12,-25.84 145.58,-26.91 154.49,-32.65 156.12,-25.84" style=""/>
<text text-anchor="middle" x="363.48" y="-63.59" font-family="Times,serif" font-size="14.00" fill="goldenrod" style="">-5.64</text>
</g>
</g>
</svg>